<svg xmlns="http://www.w3.org/2000/svg" enable-background="new 0 0 495.994 495.994" height="20" viewBox="0 0 495.994 495.994" width="20" class="mr-2"><path d="m144.407 131.962c-36.417 49.544-61.881 96.668-71.631 117.476-2.709 5.782-8.597 9.389-14.979 9.19l-16.051-.5c-38.573-1.182-56.218-48.87-27.61-74.87l59.21-53.84c16.111-14.642 36.751-22.557 57.84-22.903 13.232-.217 21.059 14.783 13.221 25.447zm245.071 232.858c.219-13.276-14.826-21.036-25.521-13.169-50.228 36.947-96.964 61.941-117.369 71.523-5.789 2.719-9.422 8.603-9.223 14.995l.501 16.079c1.184 38.627 48.914 56.181 74.87 27.61l53.84-59.21c14.639-16.108 22.554-36.743 22.902-57.828zm-342.281 9.384 20.719-20.719c6.249-6.248 6.249-16.379 0-22.627-6.248-6.248-16.379-6.248-22.627 0l-20.719 20.719c-10.112 10.111-2.809 27.313 11.313 27.313 4.096.001 8.19-1.562 11.314-4.686zm98.016 98.016 20.718-20.719c6.248-6.248 6.248-16.379 0-22.627-6.248-6.25-16.378-6.248-22.627 0l-20.718 20.719c-10.112 10.112-2.808 27.313 11.314 27.313 4.094 0 8.189-1.562 11.313-4.686zm-84.582-14.23 70.351-70.352c6.249-6.248 6.249-16.379 0-22.627-6.248-6.248-16.378-6.248-22.627 0l-70.351 70.352c-10.112 10.111-2.809 27.313 11.313 27.313 4.095 0 8.19-1.562 11.314-4.686zm334.024-155.582c-23.097 19.796-46.88 37.555-71.733 53.735-5.631 3.666-13.069 2.863-17.82-1.888l-163.364-163.363c-4.751-4.751-5.554-12.189-1.888-17.82 17.748-27.263 35.424-50.36 55.115-73.333 66.613-77.163 169.296-113.34 269.78-95.07l11.6 2.1c6.55 1.19 11.69 6.33 12.88 12.88l2.1 11.6c17.57 96.527-14.405 200.191-96.67 271.159zm-14.25-186.82c-26.89-26.89-70.64-26.89-97.53 0-26.9 26.89-26.9 70.65 0 97.53 26.868 26.887 70.629 26.9 97.53 0 26.89-26.879 26.89-70.64 0-97.53zm-250.186 109.039c-6.765-6.765-18.189-5.096-22.644 3.37-3.063 5.821-5.949 11.487-8.85 17.402-9.781 19.907-5.815 43.928 9.96 59.69l82.22 82.22c10 10 23.32 15.27 36.83 15.27 14.154 0 22.512-4.821 40.262-14.16 8.466-4.455 10.135-15.879 3.37-22.644z" fill="#fff"></path></svg>